%TF.GenerationSoftware,Altium Limited,Altium Designer,22.1.2 (22)*%
G04 Layer_Color=16711935*
%FSLAX45Y45*%
%MOMM*%
%TF.SameCoordinates,5022C1C8-6CFD-419B-81E8-BD9690F5394D*%
%TF.FilePolarity,Negative*%
%TF.FileFunction,Soldermask,Bot*%
%TF.Part,Single*%
G01*
G75*
%TA.AperFunction,SMDPad,CuDef*%
%ADD75R,0.85001X1.10000*%
%TA.AperFunction,ComponentPad*%
%ADD76O,1.15000X2.25000*%
%ADD77O,1.15000X1.95000*%
%ADD78C,0.80000*%
%ADD79C,1.10000*%
D75*
X11762500Y-2849999D02*
D03*
Y-2250001D02*
D03*
X11387499Y-2849999D02*
D03*
Y-2250001D02*
D03*
X10637499Y-1500001D02*
D03*
Y-2099999D02*
D03*
X11012500Y-1500001D02*
D03*
Y-2099999D02*
D03*
X812500Y-2250001D02*
D03*
Y-2849999D02*
D03*
X1187500Y-2250001D02*
D03*
Y-2849999D02*
D03*
X1687500Y-1900001D02*
D03*
Y-2499999D02*
D03*
X2062500Y-1900001D02*
D03*
Y-2499999D02*
D03*
X10637499Y-3000001D02*
D03*
Y-3599999D02*
D03*
X11012500Y-3000001D02*
D03*
Y-3599999D02*
D03*
X9887499Y-2250001D02*
D03*
Y-2849999D02*
D03*
X10262500Y-2250001D02*
D03*
Y-2849999D02*
D03*
X9912500Y-4400001D02*
D03*
Y-4999999D02*
D03*
X10287500Y-4400001D02*
D03*
Y-4999999D02*
D03*
X2612500D02*
D03*
Y-4400001D02*
D03*
X2237500Y-4999999D02*
D03*
Y-4400001D02*
D03*
D76*
X1418000Y-548750D02*
D03*
X2282000D02*
D03*
D77*
X1418000Y-133750D02*
D03*
X2282000D02*
D03*
D78*
X1561000Y-498750D02*
D03*
X2139000D02*
D03*
D79*
X4768006Y-460003D02*
D03*
X3969989D02*
D03*
%TF.MD5,e5866f7365512d06c07b2894a48cf010*%
M02*
